<?xml version="1.0" encoding="UTF-8" standalone="no"?>
<!DOCTYPE svg PUBLIC "-//W3C//DTD SVG 1.1//EN" "http://www.w3.org/Graphics/SVG/1.1/DTD/svg11.dtd">
<svg width="100%" height="100%" viewBox="0 0 950 713" version="1.1" xmlns="http://www.w3.org/2000/svg" xmlns:xlink="http://www.w3.org/1999/xlink" xml:space="preserve" xmlns:serif="http://www.serif.com/" style="fill-rule:evenodd;clip-rule:evenodd;stroke-linecap:round;stroke-linejoin:round;stroke-miterlimit:1.5;">
    <g transform="matrix(1,0,0,1,75,56.25)">
        <g transform="matrix(1.06524,0,0,1,-37.639,0)">
            <rect x="72.828" y="44.082" width="675.603" height="372.954" style="fill:rgb(51,51,51);stroke:rgb(66,66,66);stroke-width:38.72px;"/>
        </g>
        <g transform="matrix(0.938724,0,0,1.28977,23.1218,-169.156)">
            <rect x="188.479" y="523.778" width="425.415" height="47.161" style="fill:rgb(66,66,66);stroke:rgb(66,66,66);stroke-width:35.46px;"/>
        </g>
        <g transform="matrix(1.08806,0,0,0.857904,-37.8455,48.7448)">
            <rect x="310.68" y="430.044" width="183.172" height="103.229" style="fill:rgb(66,66,66);stroke:rgb(66,66,66);stroke-width:40.83px;"/>
        </g>
    </g>
    <g transform="matrix(1.18133,0,0,0.647912,-281.383,-16.7092)">
        <rect x="667.816" y="235.734" width="229.887" height="40.348" style="fill:rgb(120,120,120);"/>
    </g>
    <g transform="matrix(1.02014,0,0,0.647912,-136.452,22.0369)">
        <rect x="667.816" y="235.734" width="229.887" height="40.348" style="fill:rgb(120,120,120);"/>
    </g>
    <g transform="matrix(1.02014,0,0,0.647912,-136.452,61.091)">
        <rect x="667.816" y="235.734" width="229.887" height="40.348" style="fill:rgb(120,120,120);"/>
    </g>
    <g transform="matrix(1.02014,0,0,0.647912,-136.452,100.562)">
        <rect x="667.816" y="235.734" width="229.887" height="40.348" style="fill:rgb(120,120,120);"/>
    </g>
    <g transform="matrix(1.02014,0,0,0.647912,-136.452,139.739)">
        <rect x="667.816" y="235.734" width="229.887" height="40.348" style="fill:rgb(120,120,120);"/>
    </g>
    <g transform="matrix(1.02014,0,0,0.647912,-136.452,178.525)">
        <rect x="667.816" y="235.734" width="229.887" height="40.348" style="fill:rgb(120,120,120);"/>
    </g>
    <g transform="matrix(1.02014,0,0,0.647912,-136.161,217.56)">
        <rect x="667.816" y="235.734" width="229.887" height="40.348" style="fill:rgb(120,120,120);"/>
    </g>
    <g transform="matrix(1.23954,0,0,0.647912,-333.823,258.511)">
        <rect x="667.816" y="235.734" width="229.887" height="40.348" style="fill:rgb(120,120,120);"/>
    </g>
    <g transform="matrix(1,0,0,1,75,56.25)">
        <g transform="matrix(1.02818,0,0,0.621956,40.4505,48.5797)">
            <rect x="73.671" y="78.445" width="248.14" height="170.221" style="fill:rgb(66,66,66);stroke:rgb(0,187,255);stroke-width:47.08px;stroke-linecap:square;stroke-linejoin:miter;"/>
        </g>
        <g transform="matrix(1.02818,0,0,0.621956,40.4505,207.285)">
            <rect x="73.671" y="78.445" width="248.14" height="170.221" style="fill:rgb(66,66,66);stroke:rgb(0,187,255);stroke-width:47.08px;stroke-linecap:square;stroke-linejoin:miter;"/>
        </g>
        <g transform="matrix(1,0,0,1,14.3248,-187.133)">
            <circle cx="90.006" cy="279.037" r="19.616" style="fill:rgb(255,48,0);stroke:rgb(255,48,0);stroke-width:8.5px;stroke-linecap:square;stroke-linejoin:miter;"/>
        </g>
        <g transform="matrix(1,0,0,1,14.3248,89.3418)">
            <circle cx="90.006" cy="279.037" r="19.616" style="fill:rgb(255,0,243);stroke:rgb(255,0,243);stroke-width:8.5px;stroke-linecap:square;stroke-linejoin:miter;"/>
        </g>
    </g>
    <g transform="matrix(1.20413,0,0,1.20413,274.427,-174.257)">
        <circle cx="163.794" cy="382.75" r="127.057" style="fill:rgb(66,66,66);stroke:rgb(0,187,255);stroke-width:7.06px;stroke-linecap:square;stroke-linejoin:miter;"/>
    </g>
    <g transform="matrix(0.587184,0,0,0.587184,147.317,80.6397)">
        <circle cx="605.835" cy="386.613" r="96.225" style="fill:rgb(66,66,66);stroke:rgb(0,187,255);stroke-width:45.98px;stroke-linecap:square;stroke-linejoin:miter;"/>
    </g>
    <g transform="matrix(0.983141,-0.18285,0.18285,0.983141,-195.524,37.6256)">
        <rect x="511.374" y="298.572" width="173.312" height="20.76" style="fill:rgb(0,187,255);stroke:rgb(0,187,255);stroke-width:8.5px;stroke-linecap:square;stroke-linejoin:miter;"/>
    </g>
    <g transform="matrix(1,0,0,1,-183.522,-108.654)">
        <rect x="578.432" y="318.353" width="32.89" height="168.248" style="fill:rgb(0,187,255);stroke:rgb(0,187,255);stroke-width:8.5px;stroke-linecap:square;stroke-linejoin:miter;"/>
    </g>
</svg>
